<mxfile host="app.diagrams.net" agent="Mozilla/5.0 (Windows NT 10.0; Win64; x64) AppleWebKit/537.36 (KHTML, like Gecko) Chrome/133.0.0.0 Safari/537.36" version="26.0.16">
  <diagram id="tJz_Mz_YD4Q-bRihtW6N" name="Page-1">
    <mxGraphModel dx="880" dy="504" grid="1" gridSize="10" guides="1" tooltips="1" connect="1" arrows="1" fold="1" page="1" pageScale="1" pageWidth="850" pageHeight="1100" math="0" shadow="0">
      <root>
        <mxCell id="0" />
        <mxCell id="1" parent="0" />
        <mxCell id="F031lDR7qx-i9m5HDtJ4-4" value="" style="rounded=0;whiteSpace=wrap;html=1;" parent="1" vertex="1">
          <mxGeometry x="130" y="200" width="80" height="200" as="geometry" />
        </mxCell>
        <mxCell id="F031lDR7qx-i9m5HDtJ4-2" value="&lt;b&gt;P&lt;sub&gt;&lt;font&gt;0&lt;/font&gt;&lt;/sub&gt;&lt;/b&gt;" style="ellipse;whiteSpace=wrap;html=1;aspect=fixed;" parent="1" vertex="1">
          <mxGeometry x="140" y="220" width="60" height="60" as="geometry" />
        </mxCell>
        <mxCell id="F031lDR7qx-i9m5HDtJ4-5" value="&lt;b&gt;M&lt;sub&gt;&lt;font&gt;0&lt;/font&gt;&lt;/sub&gt;&lt;/b&gt;" style="rounded=0;whiteSpace=wrap;html=1;" parent="1" vertex="1">
          <mxGeometry x="135" y="320" width="70" height="40" as="geometry" />
        </mxCell>
        <mxCell id="F031lDR7qx-i9m5HDtJ4-6" value="" style="rounded=0;whiteSpace=wrap;html=1;" parent="1" vertex="1">
          <mxGeometry x="320" y="200" width="80" height="200" as="geometry" />
        </mxCell>
        <mxCell id="F031lDR7qx-i9m5HDtJ4-7" value="&lt;b&gt;P&lt;sub&gt;&lt;font&gt;n&lt;/font&gt;&lt;/sub&gt;&lt;/b&gt;" style="ellipse;whiteSpace=wrap;html=1;aspect=fixed;" parent="1" vertex="1">
          <mxGeometry x="330" y="220" width="60" height="60" as="geometry" />
        </mxCell>
        <mxCell id="F031lDR7qx-i9m5HDtJ4-8" value="&lt;b&gt;M&lt;sub&gt;n&lt;/sub&gt;&lt;/b&gt;" style="rounded=0;whiteSpace=wrap;html=1;" parent="1" vertex="1">
          <mxGeometry x="325" y="320" width="70" height="40" as="geometry" />
        </mxCell>
        <mxCell id="F031lDR7qx-i9m5HDtJ4-9" value="" style="endArrow=none;html=1;rounded=0;exitX=1.017;exitY=0.673;exitDx=0;exitDy=0;exitPerimeter=0;startFill=0;" parent="1" edge="1">
          <mxGeometry width="50" height="50" relative="1" as="geometry">
            <mxPoint x="209.99999999999997" y="335" as="sourcePoint" />
            <mxPoint x="249.47" y="335" as="targetPoint" />
          </mxGeometry>
        </mxCell>
        <mxCell id="F031lDR7qx-i9m5HDtJ4-10" value="" style="endArrow=none;html=1;rounded=0;exitX=1.017;exitY=0.673;exitDx=0;exitDy=0;exitPerimeter=0;startFill=0;" parent="1" edge="1">
          <mxGeometry width="50" height="50" relative="1" as="geometry">
            <mxPoint x="209.99999999999997" y="347" as="sourcePoint" />
            <mxPoint x="249.47" y="347" as="targetPoint" />
          </mxGeometry>
        </mxCell>
        <mxCell id="F031lDR7qx-i9m5HDtJ4-11" value="Send" style="text;html=1;align=center;verticalAlign=middle;resizable=0;points=[];autosize=1;strokeColor=none;fillColor=none;" parent="1" vertex="1">
          <mxGeometry x="240" y="300" width="50" height="30" as="geometry" />
        </mxCell>
        <mxCell id="F031lDR7qx-i9m5HDtJ4-13" value="Recv" style="text;html=1;align=center;verticalAlign=middle;resizable=0;points=[];autosize=1;strokeColor=none;fillColor=none;" parent="1" vertex="1">
          <mxGeometry x="240" y="350" width="50" height="30" as="geometry" />
        </mxCell>
        <mxCell id="F031lDR7qx-i9m5HDtJ4-14" value="" style="endArrow=none;dashed=1;html=1;dashPattern=1 3;strokeWidth=2;rounded=0;fontSize=14;" parent="1" edge="1">
          <mxGeometry width="50" height="50" relative="1" as="geometry">
            <mxPoint x="255" y="249.67000000000002" as="sourcePoint" />
            <mxPoint x="275" y="249.67000000000002" as="targetPoint" />
          </mxGeometry>
        </mxCell>
        <mxCell id="F031lDR7qx-i9m5HDtJ4-16" value="" style="endArrow=none;dashed=1;html=1;dashPattern=1 3;strokeWidth=2;rounded=0;fontSize=14;" parent="1" edge="1">
          <mxGeometry width="50" height="50" relative="1" as="geometry">
            <mxPoint x="256" y="340" as="sourcePoint" />
            <mxPoint x="276" y="340" as="targetPoint" />
          </mxGeometry>
        </mxCell>
        <mxCell id="F031lDR7qx-i9m5HDtJ4-17" value="" style="endArrow=none;html=1;rounded=0;exitX=1.017;exitY=0.673;exitDx=0;exitDy=0;exitPerimeter=0;startFill=0;" parent="1" edge="1">
          <mxGeometry width="50" height="50" relative="1" as="geometry">
            <mxPoint x="280.53" y="335" as="sourcePoint" />
            <mxPoint x="320" y="335" as="targetPoint" />
          </mxGeometry>
        </mxCell>
        <mxCell id="F031lDR7qx-i9m5HDtJ4-18" value="" style="endArrow=none;html=1;rounded=0;exitX=1.017;exitY=0.673;exitDx=0;exitDy=0;exitPerimeter=0;startFill=0;" parent="1" edge="1">
          <mxGeometry width="50" height="50" relative="1" as="geometry">
            <mxPoint x="280" y="347" as="sourcePoint" />
            <mxPoint x="319.47" y="347" as="targetPoint" />
          </mxGeometry>
        </mxCell>
        <mxCell id="rFRCKvb-exArYUaVH-GA-1" value="&lt;i&gt;0&lt;/i&gt;" style="text;html=1;align=center;verticalAlign=middle;resizable=0;points=[];autosize=1;strokeColor=none;fillColor=none;" vertex="1" parent="1">
          <mxGeometry x="110" y="310" width="30" height="30" as="geometry" />
        </mxCell>
        <mxCell id="rFRCKvb-exArYUaVH-GA-2" value="&lt;i&gt;m-1&lt;/i&gt;" style="text;html=1;align=center;verticalAlign=middle;resizable=0;points=[];autosize=1;strokeColor=none;fillColor=none;" vertex="1" parent="1">
          <mxGeometry x="98" y="340" width="40" height="30" as="geometry" />
        </mxCell>
        <mxCell id="rFRCKvb-exArYUaVH-GA-3" value="&lt;i&gt;0&lt;/i&gt;" style="text;html=1;align=center;verticalAlign=middle;resizable=0;points=[];autosize=1;strokeColor=none;fillColor=none;" vertex="1" parent="1">
          <mxGeometry x="300" y="311" width="30" height="30" as="geometry" />
        </mxCell>
        <mxCell id="rFRCKvb-exArYUaVH-GA-4" value="&lt;i&gt;m-1&lt;/i&gt;" style="text;html=1;align=center;verticalAlign=middle;resizable=0;points=[];autosize=1;strokeColor=none;fillColor=none;" vertex="1" parent="1">
          <mxGeometry x="289" y="340" width="40" height="30" as="geometry" />
        </mxCell>
      </root>
    </mxGraphModel>
  </diagram>
</mxfile>
